<svg width="320" height="103" viewBox="0 0 367 103" fill="none" xmlns="http://www.w3.org/2000/svg">
<g id="Group 2">
<g id="Rectangle 4" filter="url(#filter0_f)">
<rect x="24" y="20" width="319" height="55" rx="5" fill="#5B86E6" fill-opacity="0.5"/>
</g>
<rect id="Rectangle 5" x="15" y="5" width="337" height="69" rx="5" fill="#5B86E6"/>
<path id="Login with Google" d="M120.584 35.184H122.06V46.74H128.486V48H120.584V35.184ZM133.939 48.126C133.087 48.126 132.337 47.934 131.689 47.55C131.041 47.166 130.537 46.62 130.177 45.912C129.829 45.204 129.655 44.376 129.655 43.428C129.655 42.48 129.829 41.652 130.177 40.944C130.537 40.236 131.041 39.69 131.689 39.306C132.337 38.922 133.087 38.73 133.939 38.73C134.791 38.73 135.541 38.922 136.189 39.306C136.837 39.69 137.335 40.236 137.683 40.944C138.043 41.652 138.223 42.48 138.223 43.428C138.223 44.376 138.043 45.204 137.683 45.912C137.335 46.62 136.837 47.166 136.189 47.55C135.541 47.934 134.791 48.126 133.939 48.126ZM133.939 46.92C134.839 46.92 135.529 46.626 136.009 46.038C136.489 45.438 136.729 44.568 136.729 43.428C136.729 42.324 136.483 41.472 135.991 40.872C135.499 40.26 134.815 39.954 133.939 39.954C133.051 39.954 132.361 40.26 131.869 40.872C131.377 41.472 131.131 42.324 131.131 43.428C131.131 44.568 131.371 45.438 131.851 46.038C132.343 46.626 133.039 46.92 133.939 46.92ZM148.56 38.946V47.928C148.56 49.272 148.212 50.286 147.516 50.97C146.832 51.666 145.818 52.014 144.474 52.014C143.094 52.014 141.906 51.702 140.91 51.078L141.162 49.89C141.738 50.214 142.278 50.448 142.782 50.592C143.298 50.736 143.862 50.808 144.474 50.808C145.35 50.808 146.01 50.574 146.454 50.106C146.898 49.65 147.12 48.966 147.12 48.054V45.912C146.844 46.488 146.436 46.938 145.896 47.262C145.368 47.574 144.738 47.73 144.006 47.73C143.214 47.73 142.506 47.544 141.882 47.172C141.27 46.8 140.796 46.272 140.46 45.588C140.124 44.904 139.956 44.118 139.956 43.23C139.956 42.342 140.124 41.556 140.46 40.872C140.796 40.188 141.27 39.66 141.882 39.288C142.506 38.916 143.214 38.73 144.006 38.73C144.726 38.73 145.35 38.886 145.878 39.198C146.418 39.51 146.826 39.948 147.102 40.512V38.946H148.56ZM144.294 46.506C145.17 46.506 145.854 46.218 146.346 45.642C146.85 45.054 147.102 44.25 147.102 43.23C147.102 42.21 146.85 41.412 146.346 40.836C145.854 40.248 145.17 39.954 144.294 39.954C143.406 39.954 142.704 40.248 142.188 40.836C141.684 41.412 141.432 42.21 141.432 43.23C141.432 44.25 141.684 45.054 142.188 45.642C142.704 46.218 143.406 46.506 144.294 46.506ZM151.359 38.946H152.817V48H151.359V38.946ZM152.997 35.112V36.768H151.215V35.112H152.997ZM160.166 38.73C162.338 38.73 163.424 39.924 163.424 42.312V48H161.966V42.384C161.966 41.544 161.798 40.932 161.462 40.548C161.126 40.152 160.598 39.954 159.878 39.954C159.038 39.954 158.366 40.212 157.862 40.728C157.358 41.244 157.106 41.94 157.106 42.816V48H155.648V41.484C155.648 40.548 155.6 39.702 155.504 38.946H156.89L157.034 40.566C157.31 39.978 157.724 39.528 158.276 39.216C158.828 38.892 159.458 38.73 160.166 38.73ZM184.623 38.946L181.275 48H179.871L177.279 40.926L174.705 48H173.301L169.953 38.946H171.483L174.039 46.254L176.685 38.946H177.963L180.573 46.272L183.183 38.946H184.623ZM186.515 38.946H187.973V48H186.515V38.946ZM188.153 35.112V36.768H186.371V35.112H188.153ZM192.748 40.098V45.048C192.748 45.72 192.886 46.194 193.162 46.47C193.438 46.734 193.828 46.866 194.332 46.866C194.668 46.866 194.992 46.812 195.304 46.704V47.946C194.932 48.066 194.512 48.126 194.044 48.126C193.18 48.126 192.502 47.886 192.01 47.406C191.53 46.914 191.29 46.194 191.29 45.246V40.098H189.526V38.946H191.29V36.624L192.748 36.102V38.946H195.34V40.098H192.748ZM201.615 38.73C203.787 38.73 204.873 39.924 204.873 42.312V48H203.415V42.384C203.415 41.544 203.247 40.932 202.911 40.548C202.575 40.152 202.047 39.954 201.327 39.954C200.487 39.954 199.815 40.212 199.311 40.728C198.807 41.244 198.555 41.94 198.555 42.816V48H197.097V34.752H198.555V40.422C198.843 39.87 199.251 39.45 199.779 39.162C200.319 38.874 200.931 38.73 201.615 38.73ZM222.634 41.322V47.262C222.13 47.526 221.47 47.742 220.654 47.91C219.838 48.066 219.01 48.144 218.17 48.144C216.898 48.144 215.8 47.886 214.876 47.37C213.952 46.842 213.244 46.086 212.752 45.102C212.272 44.118 212.032 42.942 212.032 41.574C212.032 40.218 212.272 39.054 212.752 38.082C213.244 37.098 213.94 36.348 214.84 35.832C215.752 35.304 216.826 35.04 218.062 35.04C218.962 35.04 219.784 35.178 220.528 35.454C221.284 35.718 221.932 36.12 222.472 36.66L221.896 37.794C221.272 37.266 220.66 36.888 220.06 36.66C219.472 36.42 218.806 36.3 218.062 36.3C216.61 36.3 215.494 36.756 214.714 37.668C213.946 38.568 213.562 39.87 213.562 41.574C213.562 43.314 213.958 44.64 214.75 45.552C215.542 46.452 216.694 46.902 218.206 46.902C219.274 46.902 220.3 46.734 221.284 46.398V42.492H218.098V41.322H222.634ZM229.23 48.126C228.378 48.126 227.628 47.934 226.98 47.55C226.332 47.166 225.828 46.62 225.468 45.912C225.12 45.204 224.946 44.376 224.946 43.428C224.946 42.48 225.12 41.652 225.468 40.944C225.828 40.236 226.332 39.69 226.98 39.306C227.628 38.922 228.378 38.73 229.23 38.73C230.082 38.73 230.832 38.922 231.48 39.306C232.128 39.69 232.626 40.236 232.974 40.944C233.334 41.652 233.514 42.48 233.514 43.428C233.514 44.376 233.334 45.204 232.974 45.912C232.626 46.62 232.128 47.166 231.48 47.55C230.832 47.934 230.082 48.126 229.23 48.126ZM229.23 46.92C230.13 46.92 230.82 46.626 231.3 46.038C231.78 45.438 232.02 44.568 232.02 43.428C232.02 42.324 231.774 41.472 231.282 40.872C230.79 40.26 230.106 39.954 229.23 39.954C228.342 39.954 227.652 40.26 227.16 40.872C226.668 41.472 226.422 42.324 226.422 43.428C226.422 44.568 226.662 45.438 227.142 46.038C227.634 46.626 228.33 46.92 229.23 46.92ZM239.531 48.126C238.679 48.126 237.929 47.934 237.281 47.55C236.633 47.166 236.129 46.62 235.769 45.912C235.421 45.204 235.247 44.376 235.247 43.428C235.247 42.48 235.421 41.652 235.769 40.944C236.129 40.236 236.633 39.69 237.281 39.306C237.929 38.922 238.679 38.73 239.531 38.73C240.383 38.73 241.133 38.922 241.781 39.306C242.429 39.69 242.927 40.236 243.275 40.944C243.635 41.652 243.815 42.48 243.815 43.428C243.815 44.376 243.635 45.204 243.275 45.912C242.927 46.62 242.429 47.166 241.781 47.55C241.133 47.934 240.383 48.126 239.531 48.126ZM239.531 46.92C240.431 46.92 241.121 46.626 241.601 46.038C242.081 45.438 242.321 44.568 242.321 43.428C242.321 42.324 242.075 41.472 241.583 40.872C241.091 40.26 240.407 39.954 239.531 39.954C238.643 39.954 237.953 40.26 237.461 40.872C236.969 41.472 236.723 42.324 236.723 43.428C236.723 44.568 236.963 45.438 237.443 46.038C237.935 46.626 238.631 46.92 239.531 46.92ZM254.152 38.946V47.928C254.152 49.272 253.804 50.286 253.108 50.97C252.424 51.666 251.41 52.014 250.066 52.014C248.686 52.014 247.498 51.702 246.502 51.078L246.754 49.89C247.33 50.214 247.87 50.448 248.374 50.592C248.89 50.736 249.454 50.808 250.066 50.808C250.942 50.808 251.602 50.574 252.046 50.106C252.49 49.65 252.712 48.966 252.712 48.054V45.912C252.436 46.488 252.028 46.938 251.488 47.262C250.96 47.574 250.33 47.73 249.598 47.73C248.806 47.73 248.098 47.544 247.474 47.172C246.862 46.8 246.388 46.272 246.052 45.588C245.716 44.904 245.548 44.118 245.548 43.23C245.548 42.342 245.716 41.556 246.052 40.872C246.388 40.188 246.862 39.66 247.474 39.288C248.098 38.916 248.806 38.73 249.598 38.73C250.318 38.73 250.942 38.886 251.47 39.198C252.01 39.51 252.418 39.948 252.694 40.512V38.946H254.152ZM249.886 46.506C250.762 46.506 251.446 46.218 251.938 45.642C252.442 45.054 252.694 44.25 252.694 43.23C252.694 42.21 252.442 41.412 251.938 40.836C251.446 40.248 250.762 39.954 249.886 39.954C248.998 39.954 248.296 40.248 247.78 40.836C247.276 41.412 247.024 42.21 247.024 43.23C247.024 44.25 247.276 45.054 247.78 45.642C248.296 46.218 248.998 46.506 249.886 46.506ZM256.951 34.752H258.409V48H256.951V34.752ZM268.818 43.428H262.176C262.188 44.58 262.452 45.45 262.968 46.038C263.496 46.626 264.258 46.92 265.254 46.92C266.31 46.92 267.282 46.566 268.17 45.858L268.656 46.92C268.26 47.292 267.75 47.586 267.126 47.802C266.514 48.018 265.884 48.126 265.236 48.126C263.82 48.126 262.71 47.712 261.906 46.884C261.102 46.044 260.7 44.898 260.7 43.446C260.7 42.522 260.88 41.706 261.24 40.998C261.6 40.278 262.104 39.72 262.752 39.324C263.4 38.928 264.138 38.73 264.966 38.73C266.166 38.73 267.108 39.126 267.792 39.918C268.476 40.698 268.818 41.778 268.818 43.158V43.428ZM264.984 39.864C264.228 39.864 263.61 40.092 263.13 40.548C262.662 41.004 262.362 41.646 262.23 42.474H267.504C267.432 41.622 267.18 40.974 266.748 40.53C266.328 40.086 265.74 39.864 264.984 39.864Z" fill="white"/>
<g id="Group 1">
<rect id="Rectangle 5_2" x="22" y="12" width="55" height="55" rx="4" fill="white"/>
<g id="google 1">
<g id="Google logo">
<path id="Vector" d="M59.2937 52.1687C56.5187 54.5125 52.9188 56 49 56C43.1687 56 38.0499 52.7875 35.275 48.1L36.3139 43.3111L40.9187 42.4562C41.9875 45.9062 45.2124 48.4375 49 48.4375C50.8374 48.4375 52.5437 47.8562 53.95 46.825L58.375 47.5L59.2937 52.1687Z" fill="#59C36A"/>
<path id="Vector_2" d="M59.2938 52.1688L58.375 47.5L53.95 46.825C52.5438 47.8563 50.8374 48.4375 49 48.4375V56C52.9188 56 56.5188 54.5125 59.2938 52.1688Z" fill="#00A66C"/>
<path id="Vector_3" d="M40.5625 40C40.5625 40.8624 40.6937 41.6874 40.9187 42.4562L35.275 48.1C33.8688 45.7375 33 42.9624 33 40C33 37.0374 33.8688 34.2625 35.275 31.9L39.8046 32.6796L40.9187 37.5437C40.6937 38.3124 40.5625 39.1374 40.5625 40Z" fill="#FFDA2D"/>
<path id="Vector_4" d="M65 40C65 44.8749 62.7438 49.2438 59.2938 52.1688L53.95 46.825C55.0374 46.0374 55.9562 44.9874 56.5562 43.75H49C48.4749 43.75 48.0625 43.3374 48.0625 42.8125V37.1875C48.0625 36.6624 48.4749 36.25 49 36.25H63.8C64.25 36.25 64.6437 36.5687 64.7188 37.0187C64.9062 37.9937 65 39.0062 65 40Z" fill="#4086F4"/>
<path id="Vector_5" d="M56.5563 43.75C55.9563 44.9874 55.0374 46.0374 53.9501 46.825L59.2938 52.1688C62.7438 49.2438 65 44.875 65 40C65 39.0062 64.9062 37.9937 64.7187 37.0187C64.6437 36.5687 64.2499 36.25 63.7999 36.25H49V43.75H56.5563Z" fill="#4175DF"/>
<path id="Vector_6" d="M59.5562 28.4687C59.575 28.7312 59.4625 28.975 59.2937 29.1624L55.2812 33.1562C54.9626 33.4937 54.4376 33.5312 54.0626 33.2499C52.5812 32.1437 50.8374 31.5625 49 31.5625C45.2124 31.5625 41.9875 34.0937 40.9187 37.5437L35.275 31.9C38.0499 27.2125 43.1687 24 49 24C52.7312 24 56.3687 25.375 59.2187 27.7749C59.425 27.9437 59.5375 28.2062 59.5562 28.4687Z" fill="#FF641A"/>
<path id="Vector_7" d="M54.0625 33.2499C54.4375 33.5312 54.9624 33.4937 55.2812 33.1562L59.2937 29.1624C59.4625 28.975 59.575 28.7312 59.5562 28.4687C59.5374 28.2061 59.4249 27.9437 59.2187 27.7749C56.3687 25.375 52.7313 24 49 24V31.5625C50.8374 31.5625 52.5812 32.1437 54.0625 33.2499Z" fill="#F03800"/>
</g>
</g>
</g>
</g>
<defs>
<filter id="filter0_f" x="0" y="0" width="367" height="103" filterUnits="userSpaceOnUse" color-interpolation-filters="sRGB">
<feFlood flood-opacity="0" result="BackgroundImageFix"/>
<feBlend mode="normal" in="SourceGraphic" in2="BackgroundImageFix" result="shape"/>
<feGaussianBlur stdDeviation="12" result="effect1_foregroundBlur"/>
</filter>
</defs>
</svg>
