<svg width="27" height="28" viewBox="0 0 27 28" fill="none" xmlns="http://www.w3.org/2000/svg">
<g id="Frame 3" clip-path="url(#clip0)">
<g id="phonepe 1" clip-path="url(#clip1)">
<path id="Vector" d="M12.9584 27.4994C12.5545 27.4589 12.1485 27.4312 11.7467 27.3769C9.11708 27.0201 6.77481 25.9847 4.75317 24.2241C2.63986 22.4042 1.13222 19.9567 0.439231 17.2209C0.0534144 15.7447 -0.0797186 14.2114 0.0457294 12.6888C0.253931 10.0313 1.12109 7.61771 2.7003 5.49811C4.91141 2.52961 7.8356 0.715699 11.4448 0.167159C15.384 -0.432507 18.94 0.584689 22.0121 3.16336C24.6594 5.38202 26.2563 8.26957 26.7414 11.7334C27.3139 15.8181 26.2875 19.4864 23.6829 22.6445C21.4895 25.3073 18.6611 26.8443 15.2996 27.363C14.878 27.4291 14.4502 27.4546 14.0254 27.4994H12.9584ZM10.4829 9.2857C9.39712 9.2857 8.31239 9.2857 7.22661 9.2857C6.93721 9.2857 6.83415 9.37517 6.81021 9.66702C6.78366 9.95073 6.7889 10.2366 6.82582 10.5191C6.85464 10.7572 6.96789 10.9761 7.14405 11.1343C7.32022 11.2926 7.54704 11.3792 7.78147 11.3776C8.03131 11.3829 8.28115 11.3776 8.531 11.3776C8.8433 11.3776 8.8433 11.3776 8.8433 11.6918C8.8433 12.8812 8.8433 14.0706 8.8433 15.26C8.84264 15.7347 8.90319 16.2074 9.02339 16.666C9.35756 17.9441 10.0863 18.8591 11.3511 19.2404C12.4077 19.5599 13.4685 19.4822 14.5116 19.1339C14.7562 19.0518 14.7604 19.0518 14.7614 19.3171C14.7614 20.0541 14.7562 20.7912 14.7614 21.5283C14.7593 21.6861 14.7882 21.8427 14.8463 21.9889C14.9045 22.1351 14.9907 22.2678 15.0999 22.3793C15.2092 22.4907 15.3391 22.5786 15.4822 22.6377C15.6252 22.6968 15.7783 22.7259 15.9326 22.7233C16.2751 22.7233 16.6186 22.7297 16.9611 22.7233C17.0202 22.7246 17.0789 22.7137 17.1337 22.6911C17.1886 22.6686 17.2384 22.6349 17.2801 22.592C17.3219 22.5492 17.3547 22.4982 17.3766 22.4421C17.3985 22.3859 17.4091 22.3258 17.4077 22.2653C17.4077 22.178 17.4077 22.0906 17.4077 22.0033C17.4077 18.5651 17.4077 15.1279 17.4077 11.6918C17.4077 11.2999 17.4077 11.2999 17.7804 11.2999C18.2155 11.2999 18.6517 11.2999 19.0868 11.2999C19.4095 11.2999 19.5032 11.1987 19.5032 10.8632C19.5032 10.6452 19.5032 10.4261 19.5032 10.206C19.4959 9.6095 19.1045 9.21221 18.5164 9.20688C18.0021 9.20262 17.4882 9.20262 16.9746 9.20688C16.9071 9.21159 16.8395 9.19941 16.7777 9.17138C16.7158 9.14336 16.6616 9.10034 16.6196 9.04605C16.4271 8.81172 16.2272 8.58272 16.0304 8.35265C14.9103 7.02835 13.7877 5.70617 12.6628 4.38612C12.5309 4.21696 12.3628 4.08099 12.1715 3.98866C11.9802 3.89634 11.7708 3.85012 11.5593 3.85356C10.8649 3.86208 10.2487 4.1731 9.60844 4.39358C9.41377 4.45962 9.39295 4.71312 9.52932 4.87288C9.57736 4.927 9.62809 4.97855 9.68131 5.02733C11.0638 6.3701 12.4466 7.71216 13.8297 9.0535C13.8797 9.10143 13.9713 9.14724 13.9484 9.22073C13.9193 9.31659 13.8141 9.27718 13.7402 9.27718C12.6544 9.27718 11.5697 9.27718 10.4839 9.27718L10.4829 9.2857ZM98.9239 18.2136C98.7803 18.4543 98.5741 18.5406 98.2941 18.5384C96.8731 18.5278 95.4522 18.5384 94.0312 18.5289C93.823 18.5289 93.7293 18.5779 93.7376 18.8047C93.7449 18.9709 93.7022 19.1381 93.7001 19.3053C93.6887 20.1095 94.1946 20.6485 94.9837 20.707C95.7728 20.7656 96.5223 20.543 97.2385 20.2022C97.7497 19.9604 97.8506 19.9892 98.164 20.4791C98.3868 20.8263 98.5804 21.18 98.4263 21.622C98.3429 21.8817 98.1652 22.0987 97.9298 22.228C96.8419 22.8171 95.677 22.9885 94.4632 22.8799C93.8918 22.8371 93.3342 22.6804 92.8215 22.4187C91.6171 21.7796 91.0143 20.7401 90.9571 19.3884C90.9092 18.2594 90.9321 17.1261 90.9508 15.9949C90.981 14.0639 92.2646 12.6558 94.178 12.4257C94.8584 12.3295 95.55 12.3536 96.2225 12.4971C97.7486 12.8539 98.6637 13.8743 98.8844 15.4602C98.8927 15.5167 98.9083 15.5731 98.9208 15.6296L98.9239 18.2136ZM95.0805 16.8907C95.4803 16.8907 95.88 16.8907 96.2798 16.8907C96.4245 16.8907 96.488 16.8374 96.488 16.6862C96.488 16.4529 96.488 16.2197 96.488 15.9864C96.4619 15.2408 96.0497 14.7434 95.3231 14.6486C94.4028 14.5283 93.7262 15.0129 93.7074 16.0109C93.7074 16.2239 93.7147 16.437 93.7074 16.65C93.7001 16.863 93.7772 16.9014 93.9593 16.896C94.3372 16.8864 94.7151 16.896 95.094 16.896L95.0805 16.8907ZM35.6847 20.6719C35.6847 21.1832 35.6847 21.6934 35.6847 22.2046C35.6847 22.5529 35.5067 22.7563 35.1642 22.7649C34.6291 22.7777 34.094 22.7777 33.5589 22.7649C33.2466 22.7574 33.0759 22.5795 33.0384 22.2664C33.0282 22.1795 33.0237 22.0919 33.0249 22.0044C33.0249 18.1231 33.0249 14.2417 33.0249 10.3604C33.0249 10.2539 33.0343 10.1559 33.0436 10.0547C33.0531 9.91478 33.105 9.78135 33.1922 9.67307C33.2793 9.5648 33.3974 9.48709 33.5298 9.4508C34.703 9.05137 35.9043 8.81172 37.1442 8.84474C38.1175 8.8735 39.0378 9.11102 39.8508 9.68406C40.7877 10.3412 41.3488 11.2562 41.4841 12.3959C41.6355 13.5325 41.6295 14.6853 41.4664 15.8202C41.3263 16.6705 40.9189 17.4507 40.306 18.0426C39.6932 18.6345 38.9084 19.0056 38.0707 19.0998C37.3264 19.1924 36.5883 19.1914 35.8721 18.924C35.7128 18.8644 35.6878 18.9379 35.6878 19.0753C35.6878 19.6078 35.6878 20.1404 35.6878 20.673L35.6847 20.6719ZM35.77 13.9233C35.77 14.6816 35.7763 15.4389 35.77 16.1973C35.7621 16.2757 35.781 16.3544 35.8235 16.4201C35.8661 16.4858 35.9296 16.5343 36.0032 16.5573C36.3957 16.7395 36.8058 16.7437 37.2212 16.7203C38.1946 16.666 38.8868 15.9363 38.8868 14.9394C38.8816 14.2002 38.942 13.461 38.8088 12.7218C38.7047 12.1285 38.4517 11.6641 37.9062 11.4042C37.2629 11.0975 36.606 11.1369 35.9449 11.3414C35.795 11.3883 35.7773 11.4905 35.7773 11.6268C35.7773 12.3916 35.7773 13.1574 35.7773 13.9233H35.77ZM81.4828 16.1558V10.353C81.4828 9.7469 81.6161 9.56583 82.1751 9.38582C83.2723 9.03327 84.3914 8.81598 85.5438 8.84261C86.6546 8.86817 87.6904 9.15256 88.5732 9.8843C88.9554 10.1937 89.2737 10.5777 89.5098 11.0139C89.7458 11.4502 89.8949 11.93 89.9483 12.4257C90.0925 13.5125 90.0925 14.6142 89.9483 15.701C89.6891 17.4712 88.5274 18.6769 86.7941 19.0486C85.9964 19.2394 85.1628 19.2026 84.3841 18.9421C84.1947 18.874 84.151 18.9262 84.152 19.1179C84.1582 20.118 84.152 21.1182 84.152 22.1173C84.152 22.587 83.9761 22.7723 83.5274 22.7745C83.0787 22.7766 82.6134 22.7745 82.1564 22.7745C81.6994 22.7745 81.4953 22.5763 81.4901 22.0949V16.1558H81.4828ZM84.2332 13.919C84.2332 14.6848 84.2384 15.4517 84.2332 16.2175C84.2265 16.2888 84.2434 16.3603 84.2811 16.4205C84.3189 16.4808 84.3753 16.5263 84.4414 16.5499C84.8318 16.7384 85.2419 16.7458 85.6583 16.7245C86.6463 16.6766 87.3364 15.9459 87.3458 14.9373C87.3458 14.4484 87.3458 13.9584 87.3458 13.4695C87.3348 13.0853 87.2728 12.7044 87.1616 12.3373C87.1093 12.1424 87.0164 11.9615 86.8891 11.8071C86.7619 11.6526 86.6033 11.5282 86.4245 11.4426C85.7905 11.1124 85.1326 11.139 84.4643 11.318C84.4282 11.3228 84.3933 11.3349 84.3618 11.3537C84.3303 11.3724 84.3028 11.3974 84.2808 11.4271C84.2588 11.4568 84.2428 11.4908 84.2337 11.5269C84.2247 11.563 84.2227 11.6006 84.228 11.6375C84.2384 12.3969 84.228 13.1553 84.228 13.9147L84.2332 13.919ZM42.9436 15.7638C42.9436 13.647 42.9436 11.5303 42.9436 9.41352C42.9436 8.93314 43.1144 8.7542 43.5901 8.7574C43.9326 8.7574 44.2761 8.72757 44.6165 8.78616C44.8661 8.82352 45.0964 8.94483 45.2711 9.13093C45.4459 9.31704 45.5551 9.55737 45.5816 9.81401C45.6513 10.5202 45.5961 11.2296 45.6097 11.9368C45.6097 12.1264 45.6159 12.316 45.6097 12.5056C45.6034 12.6664 45.644 12.7346 45.8179 12.6845C46.2873 12.5592 46.7679 12.4824 47.2524 12.4555C49.0752 12.3149 50.5357 13.4067 50.9271 15.2248C51.0205 15.6442 51.068 16.0729 51.0687 16.503C51.0687 18.3797 51.0687 20.2554 51.0687 22.1311C51.0687 22.571 50.8876 22.7617 50.4618 22.7702C50.1898 22.7745 49.9184 22.7745 49.6477 22.7702C49.4827 22.7713 49.319 22.7388 49.1664 22.6744C49.0138 22.6101 48.8753 22.5152 48.7589 22.3954C48.6426 22.2755 48.5508 22.1332 48.4889 21.9766C48.427 21.82 48.3963 21.6524 48.3985 21.4835C48.3944 19.8922 48.3944 18.3013 48.3985 16.7107C48.4099 16.3964 48.3748 16.0822 48.2944 15.7787C48.1393 15.2632 47.7947 14.9788 47.2794 14.8989C46.804 14.8397 46.3219 14.8729 45.8585 14.9969C45.6607 15.0427 45.5993 15.1428 45.6003 15.3473C45.6065 17.5372 45.6065 19.7268 45.6003 21.916C45.6003 22.0033 45.6003 22.0917 45.6003 22.1791C45.5722 22.5774 45.3921 22.7638 45.0007 22.7691C44.5079 22.7755 44.0152 22.7755 43.5224 22.7691C43.1196 22.7691 42.9374 22.571 42.9374 22.1588C42.9374 20.0286 42.9374 17.8983 42.9374 15.7681L42.9436 15.7638ZM52.4626 17.5639C52.4866 17.0537 52.4189 16.3922 52.497 15.7414C52.6854 14.1587 53.538 13.1351 55.0235 12.6845C56.2204 12.3001 57.5093 12.3425 58.6795 12.8049C60.0464 13.3481 60.7616 14.409 60.8771 15.8937C60.9614 16.9855 60.9167 18.0815 60.9052 19.1754C60.8938 20.2693 60.5658 21.2716 59.7101 22.0172C59.0678 22.5774 58.3017 22.8362 57.4813 22.9438C56.6009 23.0711 55.7036 22.9857 54.8611 22.6946C53.3975 22.178 52.4845 20.8913 52.4668 19.3096C52.4595 18.777 52.4668 18.2445 52.4668 17.566L52.4626 17.5639ZM55.2713 17.5926C55.2713 18.1827 55.264 18.6577 55.2713 19.1307C55.2869 19.9668 55.67 20.4482 56.4611 20.5505C57.3981 20.673 58.2111 20.3374 58.2402 19.1722C58.2642 18.2029 58.2569 17.2326 58.2402 16.2623C58.2267 15.4709 57.8238 14.966 57.1409 14.8276C56.936 14.7952 56.728 14.7884 56.5215 14.8073C55.848 14.8403 55.392 15.2781 55.3035 15.9598C55.2296 16.5413 55.2921 17.1261 55.2682 17.5926H55.2713ZM77.1575 18.5331C76.4215 18.5331 75.6865 18.5395 74.9505 18.5331C74.7652 18.5331 74.6882 18.6034 74.6819 18.7813C74.6746 19.0284 74.6091 19.2723 74.6424 19.5269C74.7319 20.2043 75.2181 20.6581 75.8999 20.7134C76.6932 20.7773 77.4281 20.5771 78.135 20.232C78.6929 19.9593 78.8043 19.9913 79.1364 20.5324C79.3581 20.8924 79.5424 21.262 79.3446 21.704C79.2741 21.9056 79.1371 22.0758 78.9574 22.1854C77.2376 23.0748 75.471 23.2506 73.7055 22.3857C72.6062 21.8531 72.0159 20.8647 71.9233 19.6313C71.8322 18.3139 71.8322 16.9917 71.9233 15.6743C72.0159 14.1917 72.9747 13.0168 74.4217 12.594C75.4143 12.2933 76.4705 12.2907 77.4646 12.5865C78.8179 12.9902 79.5913 13.9488 79.8151 15.3559C79.9526 16.2314 79.9036 17.1176 79.888 17.9995C79.8807 18.3734 79.6798 18.5374 79.3019 18.5384H77.1575V18.5331ZM76.0332 16.896C76.4392 16.896 76.8462 16.896 77.2522 16.896C77.3854 16.896 77.45 16.8513 77.4458 16.7064C77.4396 16.4806 77.4521 16.2538 77.4406 16.029C77.4021 15.2536 76.9846 14.7509 76.257 14.655C75.5054 14.5538 74.786 14.852 74.6549 15.8202C74.6153 16.111 74.6445 16.4029 74.632 16.6937C74.6247 16.847 74.6903 16.8982 74.835 16.896C75.2347 16.8907 75.6334 16.896 76.0332 16.896V16.896ZM62.4449 17.9175C62.4449 16.5527 62.4449 15.1879 62.4449 13.8231C62.4449 13.3609 62.5927 13.1713 63.0206 13.0254C64.0887 12.6477 65.2102 12.4516 66.3403 12.4449C67.4365 12.4449 68.49 12.6408 69.3593 13.4035C70.0567 14.0159 70.3794 14.8244 70.5189 15.7297C70.5574 16.0262 70.573 16.3254 70.5658 16.6244C70.5658 18.4564 70.5658 20.2885 70.5658 22.1205C70.5658 22.5902 70.3951 22.7691 69.9308 22.7659C69.582 22.7659 69.2312 22.7979 68.8835 22.7404C68.3037 22.6434 67.9279 22.2078 67.9258 21.6071C67.9195 20.052 67.9258 18.498 67.9258 16.9429C67.9342 16.5928 67.908 16.2427 67.8477 15.898C67.7103 15.2153 67.271 14.8329 66.5923 14.802C66.1856 14.7866 65.7784 14.8112 65.3763 14.8755C65.1681 14.9085 65.1109 15.0022 65.1119 15.2067C65.1168 17.4392 65.1168 19.6725 65.1119 21.9064C65.1119 21.9937 65.1119 22.0821 65.1119 22.1684C65.1068 22.3061 65.0497 22.4364 64.9527 22.532C64.8556 22.6275 64.7261 22.6808 64.5914 22.6807C64.0418 22.6914 63.4911 22.6924 62.9414 22.6807C62.6291 22.6743 62.4449 22.4581 62.4438 22.1194C62.4438 20.7177 62.4438 19.3163 62.4438 17.9154" fill="#5F259F"/>
<path id="Vector_2" d="M14.7823 14.0959C14.7823 14.9064 14.7771 15.7159 14.7823 16.5254C14.792 16.6041 14.7728 16.6836 14.7283 16.7486C14.6839 16.8136 14.6174 16.8593 14.5419 16.8769C14.0335 17.0558 13.4939 17.1226 12.9585 17.0729C12.0476 16.9845 11.5386 16.4338 11.4615 15.4891C11.3907 14.622 11.4428 13.754 11.4282 12.8859C11.422 12.4598 11.4282 12.0402 11.4282 11.6173C11.4282 11.4416 11.4844 11.3702 11.6645 11.3713C12.6212 11.3777 13.5779 11.3798 14.5335 11.3713C14.7417 11.3713 14.7855 11.4576 14.7844 11.6461C14.7782 12.463 14.7844 13.28 14.7844 14.0959" fill="#5F259F"/>
</g>
</g>
<defs>
<clipPath id="clip0">
<rect width="27" height="27.5" fill="white"/>
</clipPath>
<clipPath id="clip1">
<rect width="99" height="27.5868" fill="white"/>
</clipPath>
</defs>
</svg>
