<svg width="50" height="49" viewBox="0 0 50 49" fill="none" xmlns="http://www.w3.org/2000/svg">
<path fill-rule="evenodd" clip-rule="evenodd" d="M8.7426 12.2222C7.92209 10.9105 7.5 9.29587 7.5 7.33333C7.5 3.46399 10.4759 0 15 0C19.53 0 23.1832 2.96664 25 7.61158C26.8168 2.96664 30.47 0 35 0C39.5241 0 42.5 3.46399 42.5 7.33333C42.5 9.29587 42.0779 10.9105 41.2574 12.2222H45C47.7614 12.2222 50 14.4111 50 17.1111V22C50 24.7001 47.7614 26.8889 45 26.8889V44C45 46.7001 42.7614 48.8889 40 48.8889H10C7.23858 48.8889 5 46.7001 5 44V26.8889C2.23858 26.8889 0 24.7001 0 22V17.1111C0 14.4111 2.23858 12.2222 5 12.2222H8.7426ZM22.5 17.1111H5.00002V22H22.5V17.1111ZM45 22H27.5V17.1111H45V22ZM22.5 44V26.8889H9.99999V44H22.5ZM40 44H27.5V26.8889H40V44ZM15 4.88892C13.4491 4.88892 12.5 5.99371 12.5 7.33336C12.5 10.3968 15.0425 11.8534 21.0735 12.1599C20.4033 7.60616 17.9054 4.88892 15 4.88892ZM28.75 12.1599C29.4203 7.60616 31.9181 4.88892 34.8235 4.88892C36.3744 4.88892 37.3235 5.99371 37.3235 7.33336C37.3235 10.3968 34.781 11.8534 28.75 12.1599Z" fill="white"/>
</svg>
