<svg width="118" height="24" viewBox="0 0 118 24" fill="none" xmlns="http://www.w3.org/2000/svg">
<path fill-rule="evenodd" clip-rule="evenodd" d="M105.976 18.8059L113.189 23.2924L111.275 14.8365L117.647 9.14715L109.256 8.41342L105.976 0.43866L102.697 8.41342L94.3059 9.14715L100.678 14.8365L98.7641 23.2924L105.976 18.8059Z" fill="#E4E4E4"/>
<path fill-rule="evenodd" clip-rule="evenodd" d="M82.6353 18.8059L89.8477 23.2924L87.9338 14.8365L94.3059 9.14715L85.9147 8.41342L82.6353 0.43866L79.3559 8.41342L70.9647 9.14715L77.3369 14.8365L75.4229 23.2924L82.6353 18.8059Z" fill="#E4E4E4"/>
<path fill-rule="evenodd" clip-rule="evenodd" d="M59.2941 18.8059L66.5066 23.2924L64.5926 14.8365L70.9647 9.14715L62.5736 8.41342L59.2941 0.43866L56.0147 8.41342L47.6236 9.14715L53.9957 14.8365L52.0817 23.2924L59.2941 18.8059Z" fill="#E4E4E4"/>
<path fill-rule="evenodd" clip-rule="evenodd" d="M35.953 18.8059L43.1654 23.2924L41.2514 14.8365L47.6236 9.14715L39.2324 8.41342L35.953 0.43866L32.6735 8.41342L24.2824 9.14715L30.6545 14.8365L28.7405 23.2924L35.953 18.8059Z" fill="#FF9017"/>
<path fill-rule="evenodd" clip-rule="evenodd" d="M12.6118 18.8059L19.8242 23.2924L17.9102 14.8365L24.2824 9.14715L15.8912 8.41342L12.6118 0.43866L9.33235 8.41342L0.941193 9.14715L7.31333 14.8365L5.39936 23.2924L12.6118 18.8059Z" fill="#FF9017"/>
</svg>
