<svg width="118" height="24" viewBox="0 0 118 24" fill="none" xmlns="http://www.w3.org/2000/svg">
<path fill-rule="evenodd" clip-rule="evenodd" d="M105.976 19.0041L113.189 23.4906L111.275 15.0347L117.647 9.34533L109.256 8.61161L105.976 0.636841L102.697 8.61161L94.3059 9.34533L100.678 15.0347L98.7641 23.4906L105.976 19.0041Z" fill="#E4E4E4"/>
<path fill-rule="evenodd" clip-rule="evenodd" d="M82.6353 19.0041L89.8477 23.4906L87.9338 15.0347L94.3059 9.34533L85.9147 8.61161L82.6353 0.636841L79.3559 8.61161L70.9647 9.34533L77.3369 15.0347L75.4229 23.4906L82.6353 19.0041Z" fill="#E4E4E4"/>
<path fill-rule="evenodd" clip-rule="evenodd" d="M59.2941 19.0041L66.5066 23.4906L64.5926 15.0347L70.9647 9.34533L62.5736 8.61161L59.2941 0.636841L56.0147 8.61161L47.6236 9.34533L53.9957 15.0347L52.0817 23.4906L59.2941 19.0041Z" fill="#FF9017"/>
<path fill-rule="evenodd" clip-rule="evenodd" d="M35.953 19.0041L43.1654 23.4906L41.2514 15.0347L47.6236 9.34533L39.2324 8.61161L35.953 0.636841L32.6735 8.61161L24.2824 9.34533L30.6545 15.0347L28.7405 23.4906L35.953 19.0041Z" fill="#FF9017"/>
<path fill-rule="evenodd" clip-rule="evenodd" d="M12.6118 19.0041L19.8242 23.4906L17.9102 15.0347L24.2824 9.34533L15.8912 8.61161L12.6118 0.636841L9.33235 8.61161L0.941193 9.34533L7.31333 15.0347L5.39936 23.4906L12.6118 19.0041Z" fill="#FF9017"/>
</svg>
