<svg width="118" height="24" viewBox="0 0 118 24" fill="none" xmlns="http://www.w3.org/2000/svg">
<path fill-rule="evenodd" clip-rule="evenodd" d="M105.976 19.2021L113.189 23.6887L111.275 15.2328L117.647 9.54339L109.256 8.80966L105.976 0.8349L102.697 8.80966L94.3059 9.54339L100.678 15.2328L98.7641 23.6887L105.976 19.2021Z" fill="#E4E4E4"/>
<path fill-rule="evenodd" clip-rule="evenodd" d="M82.6353 19.2021L89.8477 23.6887L87.9338 15.2328L94.3059 9.54339L85.9147 8.80966L82.6353 0.8349L79.3559 8.80966L70.9647 9.54339L77.3369 15.2328L75.4229 23.6887L82.6353 19.2021Z" fill="#FF9017"/>
<path fill-rule="evenodd" clip-rule="evenodd" d="M59.2941 19.2021L66.5066 23.6887L64.5926 15.2328L70.9647 9.54339L62.5736 8.80966L59.2941 0.8349L56.0147 8.80966L47.6236 9.54339L53.9957 15.2328L52.0817 23.6887L59.2941 19.2021Z" fill="#FF9017"/>
<path fill-rule="evenodd" clip-rule="evenodd" d="M35.953 19.2021L43.1654 23.6887L41.2514 15.2328L47.6236 9.54339L39.2324 8.80966L35.953 0.8349L32.6735 8.80966L24.2824 9.54339L30.6545 15.2328L28.7405 23.6887L35.953 19.2021Z" fill="#FF9017"/>
<path fill-rule="evenodd" clip-rule="evenodd" d="M12.6118 19.2021L19.8242 23.6887L17.9102 15.2328L24.2824 9.54339L15.8912 8.80966L12.6118 0.8349L9.33235 8.80966L0.941193 9.54339L7.31333 15.2328L5.39936 23.6887L12.6118 19.2021Z" fill="#FF9017"/>
</svg>
