<svg width="118" height="23" viewBox="0 0 118 23" fill="none" xmlns="http://www.w3.org/2000/svg">
<path fill-rule="evenodd" clip-rule="evenodd" d="M105.976 18.4002L113.189 22.8868L111.275 14.4309L117.647 8.74151L109.256 8.00778L105.976 0.03302L102.697 8.00778L94.3059 8.74151L100.678 14.4309L98.7641 22.8868L105.976 18.4002Z" fill="#FF9017"/>
<path fill-rule="evenodd" clip-rule="evenodd" d="M82.6353 18.4002L89.8477 22.8868L87.9338 14.4309L94.3059 8.74151L85.9147 8.00778L82.6353 0.03302L79.3559 8.00778L70.9647 8.74151L77.3369 14.4309L75.4229 22.8868L82.6353 18.4002Z" fill="#FF9017"/>
<path fill-rule="evenodd" clip-rule="evenodd" d="M59.2941 18.4002L66.5066 22.8868L64.5926 14.4309L70.9647 8.74151L62.5736 8.00778L59.2941 0.03302L56.0147 8.00778L47.6236 8.74151L53.9957 14.4309L52.0817 22.8868L59.2941 18.4002Z" fill="#FF9017"/>
<path fill-rule="evenodd" clip-rule="evenodd" d="M35.953 18.4002L43.1654 22.8868L41.2514 14.4309L47.6236 8.74151L39.2324 8.00778L35.953 0.03302L32.6735 8.00778L24.2824 8.74151L30.6545 14.4309L28.7405 22.8868L35.953 18.4002Z" fill="#FF9017"/>
<path fill-rule="evenodd" clip-rule="evenodd" d="M12.6118 18.4002L19.8242 22.8868L17.9102 14.4309L24.2824 8.74151L15.8912 8.00778L12.6118 0.03302L9.33235 8.00778L0.941193 8.74151L7.31333 14.4309L5.39936 22.8868L12.6118 18.4002Z" fill="#FF9017"/>
</svg>
