<svg width="19" height="21" viewBox="0 0 19 21" fill="none" xmlns="http://www.w3.org/2000/svg">
<path fill-rule="evenodd" clip-rule="evenodd" d="M16.2703 2.62162H12.2033C11.7947 1.49297 10.7244 0.675676 9.45952 0.675676C8.19465 0.675676 7.12438 1.49297 6.71573 2.62162H2.6487C1.57843 2.62162 0.702759 3.4973 0.702759 4.56757V18.1892C0.702759 19.2595 1.57843 20.1351 2.6487 20.1351H16.2703C17.3406 20.1351 18.2163 19.2595 18.2163 18.1892V4.56757C18.2163 3.4973 17.3406 2.62162 16.2703 2.62162ZM9.45952 2.62162C9.99465 2.62162 10.4325 3.05946 10.4325 3.5946C10.4325 4.12973 9.99465 4.56757 9.45952 4.56757C8.92438 4.56757 8.48654 4.12973 8.48654 3.5946C8.48654 3.05946 8.92438 2.62162 9.45952 2.62162ZM7.51357 16.2432L3.62168 12.3513L4.99357 10.9794L7.51357 13.4897L13.9255 7.07781L15.2974 8.45943L7.51357 16.2432Z" fill="#00B517"/>
</svg>
