<?xml version="1.0" encoding="iso-8859-1"?>
<!-- Generator: Adobe Illustrator 19.0.0, SVG Export Plug-In . SVG Version: 6.00 Build 0)  -->
<svg version="1.1" id="Capa_1" xmlns="http://www.w3.org/2000/svg" xmlns:xlink="http://www.w3.org/1999/xlink" x="0px" y="0px"
	 viewBox="0 0 512 512" style="enable-background:new 0 0 512 512;" xml:space="preserve">
<path style="fill:#DCF9F7;" d="M512,56.474V466.63c0,5.159-4.182,9.341-9.341,9.341H9.341c-5.159,0-9.341-4.182-9.341-9.341V56.463
	c0-11.286,9.149-20.434,20.434-20.434h471.132C502.845,36.028,512,45.183,512,56.474z"/>
<path style="fill:#B0D1CF;" d="M512,56.474v73.073H0V56.474c0-11.291,9.154-20.446,20.434-20.446h471.132
	C502.845,36.028,512,45.183,512,56.474z"/>
<path style="fill:#FF433E;" d="M511.997,113.203H0.003V56.469c0-11.287,9.15-20.437,20.437-20.437h471.12
	c11.287,0,20.437,9.15,20.437,20.437V113.203z"/>
<path style="fill:#DCF9F7;" d="M344.279,83.77H68.674c-4.267,0-7.726-3.459-7.726-7.726s3.459-7.726,7.726-7.726h275.605
	c4.268,0,7.726,3.459,7.726,7.726S348.546,83.77,344.279,83.77z"/>
<path style="fill:#14C4BB;" d="M381.644,83.015c-4.268,0-7.726-3.459-7.726-7.726v-1.342c0-4.267,3.459-7.726,7.726-7.726
	s7.726,3.459,7.726,7.726v1.342C389.37,79.555,385.911,83.015,381.644,83.015z"/>
<path style="fill:#F96982;" d="M412.485,83.015c-4.268,0-7.726-3.459-7.726-7.726v-1.342c0-4.267,3.459-7.726,7.726-7.726
	c4.268,0,7.726,3.459,7.726,7.726v1.342C420.211,79.555,416.753,83.015,412.485,83.015z"/>
<path style="fill:#EF9D45;" d="M443.327,83.015c-4.268,0-7.726-3.459-7.726-7.726v-1.342c0-4.267,3.459-7.726,7.726-7.726
	s7.726,3.459,7.726,7.726v1.342C451.053,79.555,447.595,83.015,443.327,83.015z"/>
<g>
	<path style="fill:#FF433E;" d="M415.829,373.06H96.171c-4.409,0-7.984-3.575-7.984-7.984v-33.104c0-4.409,3.575-7.984,7.984-7.984
		h319.657c4.409,0,7.984,3.574,7.984,7.984v33.104C423.812,369.486,420.238,373.06,415.829,373.06z"/>
	<path style="fill:#FF433E;" d="M139.019,290.142c-4.267,0-7.726-3.459-7.726-7.726v-21.013h-29.889
		c-2.623,0-5.066-1.33-6.489-3.533c-1.424-2.203-1.632-4.977-0.554-7.368l24.091-53.451c1.753-3.891,6.328-5.624,10.218-3.869
		c3.89,1.753,5.623,6.328,3.869,10.218l-19.177,42.55h25.658c4.267,0,7.726,3.459,7.726,7.726v28.739
		C146.745,286.684,143.286,290.142,139.019,290.142z"/>
	<path style="fill:#FF433E;" d="M262.5,290.142c-4.268,0-7.726-3.459-7.726-7.726v-21.013h-29.889c-2.623,0-5.066-1.33-6.489-3.533
		c-1.424-2.203-1.632-4.977-0.554-7.368l24.091-53.451c1.753-3.891,6.329-5.624,10.218-3.869c3.89,1.753,5.623,6.328,3.869,10.218
		l-19.177,42.55H262.5c4.268,0,7.726,3.459,7.726,7.726v28.739C270.226,286.684,266.768,290.142,262.5,290.142z"/>
	<path style="fill:#FF433E;" d="M202.548,290.142h-39.413c-4.267,0-7.726-3.459-7.726-7.726v-82.19c0-4.267,3.459-7.726,7.726-7.726
		s7.726,3.459,7.726,7.726v74.464h23.961v-74.464c0-4.267,3.459-7.726,7.726-7.726s7.726,3.459,7.726,7.726v82.19
		C210.275,286.684,206.815,290.142,202.548,290.142z"/>
</g>
<g>
	<path style="fill:#B0D1CF;" d="M333.884,229.763h-26.452c-4.268,0-7.726-3.459-7.726-7.726s3.459-7.726,7.726-7.726h26.452
		c4.268,0,7.726,3.459,7.726,7.726C341.611,226.305,338.152,229.763,333.884,229.763z"/>
	<path style="fill:#B0D1CF;" d="M394.059,266.685h-86.627c-4.268,0-7.726-3.459-7.726-7.726s3.459-7.726,7.726-7.726h86.627
		c4.268,0,7.726,3.459,7.726,7.726C401.786,263.227,398.327,266.685,394.059,266.685z"/>
	<path style="fill:#B0D1CF;" d="M394.059,290.142h-86.627c-4.268,0-7.726-3.459-7.726-7.726s3.459-7.726,7.726-7.726h86.627
		c4.268,0,7.726,3.459,7.726,7.726C401.786,286.684,398.327,290.142,394.059,290.142z"/>
</g>
<g>
</g>
<g>
</g>
<g>
</g>
<g>
</g>
<g>
</g>
<g>
</g>
<g>
</g>
<g>
</g>
<g>
</g>
<g>
</g>
<g>
</g>
<g>
</g>
<g>
</g>
<g>
</g>
<g>
</g>
</svg>
